{
	"asset":{
		"generator":"Khronos glTF Blender I/O v4.2.69",
		"version":"2.0"
	},
	"extensionsUsed":[
		"KHR_materials_transmission",
		"KHR_materials_specular"
	],
	"scene":0,
	"scenes":[
		{
			"name":"Scene",
			"nodes":[
				0
			]
		}
	],
	"nodes":[
		{
			"mesh":0,
			"name":"60 Watt Panel",
			"rotation":[
				0.7071068286895752,
				0,
				0,
				0.7071068286895752
			]
		}
	],
	"materials":[
		{
			"doubleSided":true,
			"extensions":{
				"KHR_materials_specular":{
					"specularFactor":0
				}
			},
			"name":"R0.960784316062927,G0.960784316062927,B0.964705884456635",
			"pbrMetallicRoughness":{
				"baseColorFactor":[
					0.9607843160629272,
					0.9607843160629272,
					0.9647058844566345,
					1
				],
				"metallicFactor":0
			}
		},
		{
			"alphaMode":"BLEND",
			"doubleSided":true,
			"extensions":{
				"KHR_materials_transmission":{
					"transmissionFactor":0.4000000059604645
				},
				"KHR_materials_specular":{
					"specularColorFactor":[
						2.0,
						2.0,
						2.0
					]
				}
			},
			"name":"R1,G1,B1",
			"pbrMetallicRoughness":{
				"baseColorFactor":[
					1,
					1,
					1,
					0.19607843458652496
				],
				"metallicFactor":0,
				"roughnessFactor":0
			}
		},
		{
			"doubleSided":true,
			"extensions":{
				"KHR_materials_specular":{
					"specularFactor":0
				}
			},
			"name":"R0.0980392172932625,G0.0980392172932625,B0.0980392172932625",
			"pbrMetallicRoughness":{
				"baseColorFactor":[
					0.09803921729326248,
					0.09803921729326248,
					0.09803921729326248,
					1
				],
				"metallicFactor":0
			}
		}
	],
	"meshes":[
		{
			"name":"60 Watt Panel",
			"primitives":[
				{
					"attributes":{
						"POSITION":0,
						"NORMAL":1
					},
					"indices":2,
					"material":0
				},
				{
					"attributes":{
						"POSITION":3,
						"NORMAL":4
					},
					"indices":5,
					"material":1
				},
				{
					"attributes":{
						"POSITION":6,
						"NORMAL":7
					},
					"indices":8,
					"material":2
				}
			]
		}
	],
	"accessors":[
		{
			"bufferView":0,
			"componentType":5126,
			"count":10152,
			"max":[
				49.529998779296875,
				3.809999942779541,
				82.55000305175781
			],
			"min":[
				-49.529998779296875,
				0,
				-82.55000305175781
			],
			"type":"VEC3"
		},
		{
			"bufferView":1,
			"componentType":5126,
			"count":10152,
			"type":"VEC3"
		},
		{
			"bufferView":2,
			"componentType":5123,
			"count":24612,
			"type":"SCALAR"
		},
		{
			"bufferView":3,
			"componentType":5126,
			"count":24,
			"max":[
				47.243995666503906,
				3.492499828338623,
				78.73999786376953
			],
			"min":[
				-47.24399948120117,
				2.857499837875366,
				-78.739990234375
			],
			"type":"VEC3"
		},
		{
			"bufferView":4,
			"componentType":5126,
			"count":24,
			"type":"VEC3"
		},
		{
			"bufferView":5,
			"componentType":5123,
			"count":36,
			"type":"SCALAR"
		},
		{
			"bufferView":6,
			"componentType":5126,
			"count":10104,
			"max":[
				47.243995666503906,
				2.5399999618530273,
				78.73999786376953
			],
			"min":[
				-47.24399948120117,
				-1.9099999803984247e-08,
				-78.739990234375
			],
			"type":"VEC3"
		},
		{
			"bufferView":7,
			"componentType":5126,
			"count":10104,
			"type":"VEC3"
		},
		{
			"bufferView":8,
			"componentType":5123,
			"count":20196,
			"type":"SCALAR"
		}
	],
	"bufferViews":[
		{
			"buffer":0,
			"byteLength":121824,
			"byteOffset":0,
			"target":34962
		},
		{
			"buffer":0,
			"byteLength":121824,
			"byteOffset":121824,
			"target":34962
		},
		{
			"buffer":0,
			"byteLength":49224,
			"byteOffset":243648,
			"target":34963
		},
		{
			"buffer":0,
			"byteLength":288,
			"byteOffset":292872,
			"target":34962
		},
		{
			"buffer":0,
			"byteLength":288,
			"byteOffset":293160,
			"target":34962
		},
		{
			"buffer":0,
			"byteLength":72,
			"byteOffset":293448,
			"target":34963
		},
		{
			"buffer":0,
			"byteLength":121248,
			"byteOffset":293520,
			"target":34962
		},
		{
			"buffer":0,
			"byteLength":121248,
			"byteOffset":414768,
			"target":34962
		},
		{
			"buffer":0,
			"byteLength":40392,
			"byteOffset":536016,
			"target":34963
		}
	],
	"buffers":[
		{
			"byteLength":576408,
			"uri":"panel.bin"
		}
	]
}
